<!-- icon666.com - MILLIONS OF FREE VECTOR ICONS --><svg viewBox="-11 0 384 384.00003" xmlns="http://www.w3.org/2000/svg"><path d="m361.410156 5.632812c-1.859375-3.46875-5.472656-5.632812-9.410156-5.632812h-341.332031c-3.933594 0-7.550781 2.164062-9.40625 5.632812s-1.652344 7.675782.53125 10.949219l126.207031 189.3125v167.4375c.003906 5.890625 4.777344 10.664063 10.667969 10.667969.871093.003906 1.738281-.105469 2.582031-.320312l85.335938-21.332032c4.746093-1.1875 8.082031-5.453125 8.082031-10.347656v-146.105469l126.210937-189.3125c2.175782-3.273437 2.382813-7.480469.53125-10.949219zm-146.285156 191.117188c-1.167969 1.753906-1.789062 3.8125-1.792969 5.917969v141l-64 16v-157c0-2.105469-.621093-4.164063-1.789062-5.917969l-116.949219-175.417969h301.480469zm0 0"></path></svg>