<?xml version="1.0" standalone="no"?>
<!DOCTYPE svg PUBLIC "-//W3C//DTD SVG 20010904//EN"
 "http://www.w3.org/TR/2001/REC-SVG-20010904/DTD/svg10.dtd">
<svg version="1.0" xmlns="http://www.w3.org/2000/svg"
 width="512.000000pt" height="512.000000pt" viewBox="0 0 512.000000 512.000000"
 preserveAspectRatio="xMidYMid meet">

<g transform="translate(0.000000,512.000000) scale(0.100000,-0.100000)"
fill="#000000" stroke="none">
<path d="M456 4664 c-167 -40 -310 -157 -391 -316 -69 -139 -66 -36 -63 -1818
l3 -1605 22 -65 c62 -183 203 -327 383 -392 l65 -23 2085 0 2085 0 65 23 c182
66 325 214 383 397 l22 70 0 1625 0 1625 -22 70 c-58 183 -201 331 -383 397
l-65 23 -2065 2 c-1763 1 -2074 -1 -2124 -13z m4192 -162 c117 -37 217 -124
267 -235 33 -72 45 -140 45 -263 l0 -104 -2400 0 -2400 0 0 104 c0 123 12 191
45 263 50 109 149 197 264 234 53 17 164 18 2088 18 1949 1 2034 0 2091 -17z
m312 -2126 c0 -874 -4 -1382 -10 -1416 -31 -161 -148 -293 -302 -342 -57 -17
-143 -18 -2088 -18 -1945 0 -2031 1 -2088 18 -154 49 -271 181 -302 342 -6 34
-10 542 -10 1416 l0 1364 2400 0 2400 0 0 -1364z"/>
<path d="M1995 4403 c-141 -74 -167 -249 -52 -350 20 -18 54 -37 74 -43 27 -8
310 -10 945 -8 l906 3 43 30 c136 95 117 307 -33 370 -33 13 -148 15 -945 15
-807 -1 -911 -3 -938 -17z m1841 -168 c15 -23 15 -27 0 -50 l-16 -25 -880 0
c-785 0 -880 2 -894 16 -9 8 -16 24 -16 34 0 10 7 26 16 34 14 14 109 16 894
16 l880 0 16 -25z"/>
<path d="M4480 4385 l-23 -24 42 -49 c22 -28 41 -53 41 -56 0 -3 -57 -6 -126
-6 l-125 0 3 -37 3 -38 129 -5 c113 -4 127 -7 112 -19 -9 -8 -31 -32 -48 -53
l-31 -39 23 -25 c13 -13 27 -24 31 -24 4 0 46 45 94 100 l87 101 -87 99 c-48
55 -90 100 -94 100 -4 0 -18 -11 -31 -25z"/>
<path d="M506 4319 c-53 -42 -68 -100 -42 -164 41 -98 193 -99 239 -2 21 43
21 67 3 112 -30 70 -141 100 -200 54z"/>
<path d="M892 4320 c-81 -50 -76 -182 9 -226 87 -45 199 19 199 114 0 106
-115 168 -208 112z"/>
<path d="M1279 4323 c-39 -24 -59 -65 -59 -118 0 -42 5 -52 39 -86 35 -35 44
-39 90 -39 44 0 56 5 88 33 32 30 37 41 41 90 4 55 3 58 -36 97 -35 36 -45 40
-88 40 -27 0 -61 -8 -75 -17z"/>
<path d="M875 2839 c-16 -4 -43 -20 -59 -35 -57 -53 -56 -47 -56 -626 0 -510
1 -533 20 -572 11 -23 36 -52 57 -66 l37 -25 1660 -3 c1501 -2 1665 -1 1703
13 50 19 88 61 103 113 16 60 13 1047 -4 1095 -18 50 -42 76 -91 98 -38 18
-109 19 -1690 18 -923 -1 -1663 -5 -1680 -10z m3310 -659 l0 -505 -1632 -3
-1633 -2 0 510 0 510 1633 -2 1632 -3 0 -505z"/>
<path d="M3633 2470 c-56 -29 -83 -73 -83 -137 0 -93 70 -158 161 -150 56 5
101 34 123 81 62 132 -73 270 -201 206z"/>
<path d="M1678 2429 c-47 -14 -113 -71 -141 -123 -31 -59 -32 -203 0 -261 62
-116 196 -158 319 -101 88 41 133 121 133 236 0 151 -82 247 -218 256 -31 2
-72 -2 -93 -7z m123 -95 c80 -41 94 -215 24 -290 -61 -64 -146 -40 -181 51
-20 53 -15 144 10 193 29 56 90 76 147 46z"/>
<path d="M2260 2426 c-74 -16 -111 -37 -154 -88 -42 -49 -56 -91 -56 -173 0
-104 50 -184 140 -222 49 -21 164 -26 235 -11 l60 13 3 138 3 138 -93 -3 -93
-3 -3 -42 -3 -43 40 0 41 0 0 -54 c0 -63 -13 -72 -79 -61 -87 14 -131 71 -131
168 0 65 28 113 80 139 38 19 116 23 167 9 30 -9 32 -7 42 21 16 45 14 58 -11
67 -43 16 -133 19 -188 7z"/>
<path d="M1180 2180 l0 -250 155 0 155 0 0 45 0 45 -100 0 -100 0 0 205 0 205
-55 0 -55 0 0 -250z"/>
<path d="M2580 2180 l0 -250 60 0 60 0 0 250 0 250 -60 0 -60 0 0 -250z"/>
<path d="M2790 2180 l0 -250 55 0 55 0 0 178 1 177 25 -50 c14 -27 57 -107 96
-177 l69 -128 60 0 59 0 0 250 0 250 -51 0 -51 0 4 -174 3 -174 -43 85 c-23
47 -65 126 -93 174 l-51 89 -69 0 -69 0 0 -250z"/>
<path d="M3653 2129 c-114 -21 -212 -126 -213 -226 l0 -33 260 0 260 0 0 33
c0 17 -9 50 -19 73 -51 112 -169 175 -288 153z"/>
</g>
</svg>
