<?xml version="1.0" standalone="no"?>
<!DOCTYPE svg PUBLIC "-//W3C//DTD SVG 20010904//EN"
 "http://www.w3.org/TR/2001/REC-SVG-20010904/DTD/svg10.dtd">
<svg version="1.0" xmlns="http://www.w3.org/2000/svg"
 width="512.000000pt" height="512.000000pt" viewBox="0 0 512.000000 512.000000"
 preserveAspectRatio="xMidYMid meet">

<g transform="translate(0.000000,512.000000) scale(0.100000,-0.100000)"
fill="#000000" stroke="none">
<path d="M405 5114 c-150 -32 -248 -97 -320 -213 -64 -104 -59 44 -63 -1916
-1 -1202 1 -1796 8 -1830 14 -67 53 -150 97 -203 46 -56 1312 -902 1388 -927
158 -53 335 -12 454 106 101 102 131 186 131 371 l0 128 358 0 c389 1 467 6
555 40 114 43 215 151 256 273 20 59 21 81 21 624 l0 563 150 0 150 0 0 -222
c0 -131 5 -239 11 -262 21 -77 100 -121 179 -99 29 8 537 376 1202 871 115 86
142 145 102 225 -21 41 20 9 -679 525 -396 292 -611 444 -632 448 -79 15 -152
-29 -173 -104 -5 -20 -10 -137 -10 -259 l0 -223 -150 0 -150 0 -2 878 -3 877
-36 75 c-63 130 -183 225 -318 250 -52 10 -2480 13 -2526 4z m2511 -310 c18
-9 44 -33 56 -53 l23 -36 3 -842 2 -841 -249 -4 c-275 -3 -274 -3 -325 -72
-20 -27 -21 -40 -21 -376 0 -336 1 -349 21 -376 51 -69 50 -69 325 -72 l250
-3 -3 -549 -3 -548 -31 -39 c-50 -62 -61 -64 -483 -61 l-376 3 -5 1536 -5
1535 -38 76 c-70 142 -83 151 -706 463 l-546 274 1038 0 c934 1 1042 -1 1073
-15z m-1871 -437 c610 -307 703 -357 730 -390 l30 -39 3 -1721 c2 -947 0
-1746 -3 -1776 -6 -44 -14 -61 -44 -94 -33 -35 -44 -41 -93 -45 l-54 -4 -631
420 c-534 356 -632 425 -646 455 -16 32 -17 171 -17 1784 0 962 3 1753 7 1756
3 4 9 7 12 7 3 -1 321 -159 706 -353z m3250 -1488 c217 -160 395 -295 395
-299 0 -8 -783 -590 -794 -590 -2 0 -6 78 -8 173 -3 159 -5 174 -25 203 -47
65 -35 64 -627 64 l-536 0 0 150 0 150 536 0 c592 0 580 -1 627 64 20 29 22
44 25 204 2 94 5 172 8 172 2 0 182 -131 399 -291z"/>
<path d="M1322 3020 c-43 -10 -90 -55 -103 -100 -6 -22 -9 -156 -7 -362 3
-312 4 -328 24 -354 37 -50 70 -68 124 -68 54 0 87 18 124 68 20 27 21 40 21
376 0 336 -1 349 -21 376 -42 57 -97 78 -162 64z"/>
</g>
</svg>
