<?xml version="1.0" standalone="no"?>
<!DOCTYPE svg PUBLIC "-//W3C//DTD SVG 20010904//EN"
 "http://www.w3.org/TR/2001/REC-SVG-20010904/DTD/svg10.dtd">
<svg version="1.0" xmlns="http://www.w3.org/2000/svg"
 width="512.000000pt" height="512.000000pt" viewBox="0 0 512.000000 512.000000"
 preserveAspectRatio="xMidYMid meet">

<g transform="translate(0.000000,512.000000) scale(0.100000,-0.100000)"
fill="#000000" stroke="none">
<path d="M0 3255 l0 -1285 1005 0 c839 0 1005 2 1005 14 0 62 24 278 39 349
l18 87 -808 0 -809 0 0 835 0 835 2110 0 2110 0 0 -367 1 -368 47 -35 c114
-86 273 -256 357 -382 21 -32 39 -58 41 -58 2 0 4 374 4 830 l0 830 -2560 0
-2560 0 0 -1285z"/>
<path d="M3510 3345 c-468 -80 -869 -388 -1053 -810 -154 -352 -160 -742 -17
-1091 214 -525 721 -864 1290 -864 492 1 931 250 1190 675 149 244 220 555
192 840 -19 187 -57 321 -139 489 -199 406 -581 687 -1038 761 -108 18 -321
18 -425 0z m480 -395 c379 -111 653 -405 730 -782 82 -401 -90 -814 -435
-1043 -303 -200 -692 -223 -1018 -59 -139 70 -296 210 -380 337 -336 507 -164
1180 373 1465 80 42 167 74 271 97 98 22 360 14 459 -15z"/>
<path d="M3100 2020 l0 -180 640 0 640 0 0 180 0 180 -640 0 -640 0 0 -180z"/>
</g>
</svg>
