<?xml version="1.0" standalone="no"?>
<!DOCTYPE svg PUBLIC "-//W3C//DTD SVG 20010904//EN"
 "http://www.w3.org/TR/2001/REC-SVG-20010904/DTD/svg10.dtd">
<svg version="1.0" xmlns="http://www.w3.org/2000/svg"
 width="840.000000pt" height="572.000000pt" viewBox="0 0 840.000000 572.000000"
 preserveAspectRatio="xMidYMid meet">

<g transform="translate(0.000000,572.000000) scale(0.100000,-0.100000)"
fill="#000000" stroke="none">
<path d="M2035 4676 c-102 -32 -189 -111 -227 -203 l-23 -58 0 -1470 0 -1470
23 -57 c31 -76 105 -156 179 -193 l58 -30 1474 -3 c1404 -2 1473 -1 1466 15
-3 10 -12 51 -18 90 l-11 73 -1401 2 c-1317 3 -1402 4 -1432 21 -52 28 -102
77 -126 121 l-22 41 -3 1381 -2 1381 28 54 c31 59 96 111 162 129 25 7 705 9
2061 8 l2024 -3 54 -30 c29 -16 66 -45 82 -64 61 -75 59 -33 59 -1080 l0 -956
90 -83 90 -83 0 1095 c0 985 -2 1100 -16 1143 -36 106 -124 190 -235 224 -59
18 -133 19 -2177 18 -1678 0 -2125 -3 -2157 -13z"/>
<path d="M3120 4208 c-237 -18 -424 -173 -494 -408 -24 -80 -46 -225 -46 -304
0 -54 -5 -77 -22 -105 -50 -79 -18 -238 57 -282 22 -14 36 -32 44 -62 29 -95
53 -136 113 -188 72 -63 88 -96 88 -186 0 -89 -26 -142 -94 -192 -72 -54 -116
-74 -236 -109 -218 -63 -306 -112 -346 -192 -40 -78 -57 -298 -33 -410 21 -99
45 -109 346 -149 489 -65 885 -66 1391 -5 l52 6 0 372 0 371 -81 24 c-224 67
-311 160 -295 313 8 76 23 103 90 161 57 49 93 106 117 185 8 30 22 48 45 63
72 44 103 193 57 271 -16 28 -24 65 -32 160 -32 367 -147 543 -413 632 -94 32
-196 43 -308 34z"/>
<path d="M4138 3805 c-36 -20 -48 -44 -48 -95 0 -33 6 -48 29 -71 l29 -29 730
0 730 0 31 29 c43 40 44 97 2 143 l-29 33 -724 2 c-624 2 -727 0 -750 -12z"/>
<path d="M4138 3284 c-35 -19 -48 -43 -48 -93 0 -28 7 -48 24 -68 l24 -28 724
-3 c531 -2 730 1 751 9 33 14 57 56 57 100 0 22 -10 41 -34 65 l-34 34 -718 0
c-615 -1 -723 -3 -746 -16z"/>
<path d="M4134 2761 c-66 -40 -63 -140 5 -175 43 -23 428 -23 471 -1 37 19 50
43 50 90 0 47 -13 71 -50 90 -23 12 -71 15 -237 15 -187 0 -211 -2 -239 -19z"/>
<path d="M5522 2534 c-136 -40 -225 -95 -321 -200 -126 -137 -188 -313 -179
-503 10 -188 82 -347 216 -472 134 -125 260 -179 439 -186 165 -8 315 33 421
114 l34 25 202 -201 c196 -195 203 -201 242 -201 53 0 84 31 84 85 0 37 -9 48
-200 240 l-200 200 21 30 c80 118 119 250 119 399 0 125 -19 207 -71 312 -91
186 -272 328 -467 370 -106 22 -242 17 -340 -12z m312 -164 c103 -26 168 -63
241 -135 309 -308 129 -833 -304 -888 -80 -10 -97 -9 -177 11 -180 44 -314
166 -375 342 -48 135 -23 331 54 446 49 71 136 151 201 183 125 61 233 74 360
41z"/>
</g>
</svg>
