<?xml version="1.0" standalone="no"?>
<!DOCTYPE svg PUBLIC "-//W3C//DTD SVG 20010904//EN"
 "http://www.w3.org/TR/2001/REC-SVG-20010904/DTD/svg10.dtd">
<svg version="1.0" xmlns="http://www.w3.org/2000/svg"
 width="1844.000000pt" height="1920.000000pt" viewBox="0 0 1844.000000 1920.000000"
 preserveAspectRatio="xMidYMid meet">

<g transform="translate(0.000000,1920.000000) scale(0.100000,-0.100000)"
fill="#000000" stroke="none">
<path d="M8840 19189 c-1012 -51 -2053 -290 -2975 -684 -1224 -523 -2318
-1362 -3210 -2460 -154 -191 -184 -234 -207 -307 -22 -73 -24 -228 -4 -304 33
-126 123 -230 248 -289 141 -66 275 -66 415 0 87 40 148 96 256 230 345 427
713 806 1078 1110 605 505 1297 918 2017 1206 1095 438 2342 608 3542 483
1232 -128 2357 -535 3381 -1225 612 -412 1118 -874 1607 -1468 207 -250 243
-286 337 -332 199 -97 420 -58 569 101 93 100 132 234 116 398 -14 134 -41
179 -288 475 -1054 1266 -2332 2148 -3822 2635 -1013 332 -2072 481 -3060 431z"/>
<path d="M9045 16683 c-277 -33 -512 -102 -724 -215 -554 -295 -931 -825
-1028 -1443 -25 -158 -22 -441 5 -595 37 -205 89 -363 180 -545 284 -573 812
-964 1452 -1077 101 -18 480 -17 580 0 567 102 1037 411 1342 882 583 901 337
2074 -561 2674 -257 172 -560 282 -863 315 -90 10 -314 13 -383 4z"/>
<path d="M2395 14119 c-668 -90 -1206 -609 -1320 -1273 -19 -113 -19 -343 0
-461 77 -474 387 -896 824 -1119 209 -107 388 -153 621 -163 227 -9 425 28
631 116 196 85 323 173 489 340 316 317 468 725 438 1168 -40 590 -464 1131
-1036 1323 -147 49 -272 71 -432 75 -80 2 -176 0 -215 -6z"/>
<path d="M15735 14124 c-219 -31 -370 -75 -526 -154 -456 -228 -775 -670 -840
-1165 -18 -138 -6 -385 25 -516 120 -517 510 -946 1011 -1114 136 -46 249 -66
415 -72 130 -4 175 -2 279 16 321 55 600 200 836 436 262 261 418 593 444 949
24 328 -61 650 -247 931 -226 343 -575 581 -977 665 -96 20 -348 34 -420 24z"/>
<path d="M7525 11994 c-430 -127 -714 -241 -877 -355 -353 -248 -591 -586
-693 -987 -62 -246 -59 -142 -62 -2040 -4 -1893 -7 -1786 52 -1907 13 -27 103
-169 199 -315 96 -146 218 -332 272 -415 54 -82 213 -323 352 -535 327 -494
326 -493 354 -570 l23 -65 5 -2340 5 -2340 24 -45 c13 -25 30 -53 39 -62 14
-17 122 -18 2003 -18 l1988 0 26 35 c59 76 56 -71 55 2401 0 1520 3 2296 10
2345 6 41 23 101 39 134 15 33 174 283 354 555 179 272 430 654 557 848 128
195 247 386 264 425 l31 72 3 1670 c3 1770 1 1862 -43 2081 -74 366 -263 693
-544 940 -237 210 -413 294 -956 461 -219 67 -294 76 -344 41 -19 -13 -49 -50
-67 -83 -18 -33 -210 -548 -427 -1145 -218 -597 -477 -1307 -576 -1579 -107
-296 -191 -511 -208 -534 -77 -110 -249 -110 -326 -1 -16 23 -126 310 -273
714 -135 371 -387 1064 -561 1540 -173 476 -326 894 -340 930 -75 189 -130
211 -358 144z"/>
<path d="M8918 11990 c-72 -11 -126 -39 -165 -84 -42 -47 -57 -96 -51 -170 6
-72 35 -135 88 -191 146 -154 220 -365 206 -590 -6 -98 -21 -182 -67 -375 -20
-81 -23 -122 -24 -285 0 -162 4 -206 24 -300 32 -153 90 -324 169 -498 118
-261 148 -248 303 134 144 356 175 683 96 1014 -45 190 -61 318 -53 420 16
196 76 335 209 484 29 32 60 80 70 107 23 66 22 154 -3 203 -24 48 -87 103
-137 120 -46 16 -577 24 -665 11z"/>
<path d="M1422 10729 c-81 -16 -288 -82 -422 -136 -532 -212 -847 -577 -967
-1117 l-27 -121 -3 -1230 c-4 -1363 -7 -1300 61 -1441 32 -67 243 -395 549
-854 162 -243 202 -317 213 -401 4 -30 8 -718 8 -1529 1 -1390 2 -1479 19
-1550 51 -210 154 -311 366 -358 69 -16 189 -17 1356 -17 1215 0 1284 1 1360
19 199 46 299 142 352 338 16 58 18 192 23 1593 5 1477 6 1532 24 1580 25 63
57 119 150 253 152 222 565 859 595 919 63 127 61 70 61 1390 0 1009 -2 1220
-15 1315 -45 340 -180 617 -413 849 -137 135 -260 221 -443 308 -146 70 -442
173 -548 191 -174 29 -340 -24 -518 -164 -190 -151 -527 -403 -565 -423 -77
-42 -109 -30 -258 89 -165 132 -570 428 -622 454 -97 49 -223 66 -336 43z"/>
<path d="M14645 10710 c-770 -202 -1195 -609 -1323 -1265 -13 -69 -16 -249
-19 -1320 -3 -909 -1 -1256 7 -1300 24 -123 52 -170 610 -1010 92 -139 174
-275 185 -305 19 -54 20 -95 26 -1580 6 -1684 2 -1587 69 -1720 59 -116 155
-183 311 -217 79 -17 166 -18 1359 -18 1183 0 1281 1 1355 18 205 46 313 150
362 352 15 64 17 211 22 1595 l6 1525 26 60 c14 33 171 281 349 550 381 577
384 582 418 677 l27 73 3 1215 c3 1062 1 1229 -13 1326 -74 525 -357 923 -820
1153 -144 72 -259 117 -443 172 -217 65 -345 64 -480 -5 -47 -24 -455 -322
-654 -478 -100 -78 -136 -94 -188 -83 -16 4 -187 125 -382 271 -194 146 -380
278 -413 294 -124 58 -234 64 -400 20z"/>
</g>
</svg>
