<?xml version="1.0" standalone="no"?>
<!DOCTYPE svg PUBLIC "-//W3C//DTD SVG 20010904//EN"
 "http://www.w3.org/TR/2001/REC-SVG-20010904/DTD/svg10.dtd">
<svg version="1.0" xmlns="http://www.w3.org/2000/svg"
 width="960.000000pt" height="981.000000pt" viewBox="0 0 960.000000 981.000000"
 preserveAspectRatio="xMidYMid meet">

<g transform="translate(0.000000,981.000000) scale(0.100000,-0.100000)"
fill="#000000" stroke="none">
<path d="M2665 9784 c-245 -53 -456 -220 -567 -450 -68 -141 -79 -199 -85
-456 l-6 -227 -446 -4 c-379 -3 -457 -6 -521 -21 -527 -122 -912 -525 -1005
-1051 -15 -80 -17 -419 -25 -3205 -5 -1854 -4 -3149 1 -3200 11 -108 23 -163
60 -277 59 -182 153 -336 293 -482 219 -228 489 -359 801 -390 63 -6 1134 -11
2880 -13 l2780 -3 95 22 c524 120 903 509 1006 1036 14 69 17 193 21 809 3
401 2 728 -2 728 -4 0 -123 -113 -266 -252 l-259 -252 0 -427 c0 -473 -6 -544
-61 -675 -94 -225 -300 -396 -544 -450 -76 -16 -229 -17 -2839 -10 -2289 6
-2772 9 -2832 21 -249 48 -464 226 -561 465 -57 142 -54 -56 -48 3275 4 1898
10 3094 16 3150 20 184 91 330 224 461 69 68 100 90 186 132 181 88 46 82
1796 81 851 -1 2113 -5 2803 -8 l1255 -7 70 -23 c277 -91 473 -304 529 -573
14 -66 16 -169 16 -700 l0 -623 266 265 265 265 -4 410 c-4 334 -8 423 -21
480 -63 267 -179 481 -360 660 -181 179 -398 295 -656 351 -61 14 -160 18
-546 21 l-472 5 -5 231 c-5 263 -13 306 -81 452 -103 218 -298 380 -541 447
l-80 23 -1230 2 c-1060 1 -1240 0 -1300 -13z m2484 -596 c45 -14 110 -74 132
-123 16 -34 19 -68 19 -234 l0 -194 -832 6 c-458 4 -1064 7 -1345 7 l-513 0 0
193 c0 183 1 196 23 237 30 56 84 100 144 115 62 16 2320 9 2372 -7z"/>
<path d="M2077 6729 c-84 -20 -163 -83 -205 -163 -35 -68 -38 -187 -5 -257 46
-101 131 -163 246 -180 82 -11 4272 -11 4354 0 165 24 268 140 267 301 0 128
-65 229 -182 283 l-47 22 -2195 2 c-1265 0 -2211 -3 -2233 -8z"/>
<path d="M8429 6322 c-159 -45 -66 38 -1671 -1483 -815 -773 -1526 -1445
-1578 -1494 -52 -48 -100 -97 -106 -109 -7 -12 -132 -347 -278 -745 -189 -513
-266 -735 -266 -765 0 -71 51 -131 121 -142 24 -4 257 50 798 186 420 105 774
196 786 203 12 7 352 320 756 697 404 377 1103 1029 1554 1449 451 419 850
794 886 831 113 117 177 269 166 392 -11 128 -126 287 -426 592 -221 224 -343
328 -429 369 -84 39 -212 47 -313 19z m278 -356 c48 -41 162 -150 253 -242
223 -227 340 -373 340 -422 0 -71 -13 -84 -1562 -1529 -831 -774 -1515 -1410
-1520 -1412 -14 -5 -799 781 -796 796 3 13 2958 2814 2996 2840 38 26 94 42
149 43 51 0 55 -2 140 -74z m-2785 -3769 c-18 -8 -1005 -257 -1008 -254 -1 1
225 622 341 935 3 8 141 -125 344 -330 270 -273 336 -345 323 -351z"/>
<path d="M2064 5499 c-87 -25 -181 -122 -205 -212 -30 -113 13 -247 104 -319
94 -73 -60 -68 2047 -66 l1895 3 46 21 c157 73 224 254 151 409 -31 64 -77
111 -145 147 l-42 23 -1910 2 c-1129 1 -1923 -2 -1941 -8z"/>
<path d="M2033 3654 c-60 -22 -127 -86 -160 -152 -24 -48 -28 -69 -28 -137 0
-67 5 -88 27 -131 32 -60 93 -118 157 -148 l46 -21 990 0 990 0 46 21 c64 30
126 88 157 148 35 69 38 187 6 257 -29 63 -83 120 -141 149 l-48 25 -1000 2
c-863 1 -1006 0 -1042 -13z"/>
</g>
</svg>
