<?xml version="1.0" encoding="UTF-8"?>
<svg version="1.1" xmlns="http://www.w3.org/2000/svg" width="320" height="320">
<path d="M0 0 C105.6 0 211.2 0 320 0 C320 105.6 320 211.2 320 320 C214.4 320 108.8 320 0 320 C0 214.4 0 108.8 0 0 Z " fill="#3E8CB5" transform="translate(0,0)"/>
<path d="M0 0 C15.39149114 11.305038 25.51303657 26.12320633 29.57810974 44.85455322 C30.56463107 51.9173737 30.23932169 59.13600385 30.1953125 66.25390625 C30.19157697 68.03466126 30.18873255 69.81541834 30.18673706 71.59617615 C30.17914307 76.25682363 30.15953147 80.91734417 30.1373291 85.57794189 C30.11677892 90.34426151 30.10771582 95.11060187 30.09765625 99.87695312 C30.07628116 109.20969084 30.042197 118.54233481 30 127.875 C19.82843564 127.96824485 9.65697526 128.03903868 -0.51493168 128.08224869 C-5.23968311 128.10300173 -9.96413918 128.1310908 -14.6887207 128.17675781 C-19.25993635 128.22065898 -23.83087039 128.24422909 -28.40228081 128.25450897 C-30.13435732 128.26182182 -31.86642084 128.2760985 -33.59837532 128.29792023 C-56.13250075 128.57019074 -74.02172105 122.33231786 -90.625 106.625 C-104.16873086 92.68014819 -110.55322545 73.89947687 -110.42163086 54.68261719 C-109.78843162 34.93014445 -100.32782175 18.55168971 -86.45703125 5.01171875 C-82.30443056 1.40047459 -77.76439315 -1.39636704 -73 -4.125 C-72.35675781 -4.51429688 -71.71351563 -4.90359375 -71.05078125 -5.3046875 C-48.78554615 -17.76549153 -20.62883011 -13.5690421 0 0 Z " fill="#03A481" transform="translate(290,192.125)"/>
<path d="M0 0 C19.8 0 39.6 0 60 0 C60 7.26 60 14.52 60 22 C63.3 21.67 66.6 21.34 70 21 C70 14.07 70 7.14 70 0 C89.8 0 109.6 0 130 0 C130 11.88 130 23.76 130 36 C131.32 36.66 132.64 37.32 134 38 C135.65522298 39.18815511 137.27840139 40.42166092 138.875 41.6875 C139.69742187 42.33074219 140.51984375 42.97398437 141.3671875 43.63671875 C142.67042969 44.80654297 142.67042969 44.80654297 144 46 C144.51117371 46.45426361 145.02234741 46.90852722 145.54901123 47.3765564 C149.8394476 51.68581702 150.68267633 54.94656906 150.67977905 60.95896912 C150.64881134 61.95090775 150.61784363 62.94284637 150.5859375 63.96484375 C150.57744781 64.99815323 150.56895813 66.03146271 150.56021118 67.09608459 C150.52677958 70.37764307 150.4515161 73.65669162 150.375 76.9375 C150.34488731 79.16988624 150.3175138 81.40231122 150.29296875 83.63476562 C150.22702251 89.0906917 150.12677748 94.54516651 150 100 C148.2796262 96.68382045 147.20686113 93.47529676 146.1875 89.875 C141.29337328 73.78915703 131.10053661 59.48654243 116.71484375 50.41015625 C98.49709394 40.94741138 78.26801179 37.64136949 58.4296875 43.7421875 C48.68023816 47.31772587 40.75055053 52.10332368 33 59 C32.30132812 59.60457031 31.60265625 60.20914063 30.8828125 60.83203125 C22.07447301 68.97203369 16.36419114 79.57945641 13 91 C12.77570313 91.67675781 12.55140625 92.35351562 12.3203125 93.05078125 C7.2818125 110.82357233 12.02146209 130.44671176 20.6640625 146.23046875 C30.00615048 162.0460363 45.67914536 172.78976039 63.25 177.375 C65.49582865 177.93875766 67.74435999 178.47614918 70 179 C70 179.33 70 179.66 70 180 C-9.2 180 -88.4 180 -170 180 C-170 165.48 -170 150.96 -170 136 C-168.26622309 138.60066536 -167.08708655 140.98056879 -165.8125 143.8125 C-162.29976435 150.89996076 -157.30501034 154.98271312 -150 158 C-146.19714391 158.94167531 -142.65363879 159.12354982 -138.74211121 159.12025452 C-136.85123779 159.12231651 -136.85123779 159.12231651 -134.92216492 159.12442017 C-133.53298926 159.12088149 -132.14381385 159.11724669 -130.75463867 159.11352539 C-129.28593955 159.1132432 -127.8172403 159.11340188 -126.34854126 159.1139679 C-122.36754696 159.11425461 -118.38658283 159.1083782 -114.40559554 159.10139394 C-110.24291751 159.09513947 -106.08023877 159.09455494 -101.91755676 159.09336853 C-94.03766389 159.09026139 -86.1577849 159.08205632 -78.27789813 159.07201904 C-69.30576616 159.06083874 -60.33363353 159.05534262 -51.36149633 159.05032361 C-32.90765635 159.0398732 -14.45382929 159.0222857 4 159 C3.44425293 157.90373291 2.88850586 156.80746582 2.31591797 155.67797852 C1.5828671 154.22419204 0.84996477 152.77033066 0.1171875 151.31640625 C-0.24866455 150.59569946 -0.6145166 149.87499268 -0.99145508 149.13244629 C-3.4728724 144.19918587 -5.54519104 139.33794564 -7 134 C-7.20238281 133.3090625 -7.40476563 132.618125 -7.61328125 131.90625 C-8.08913737 130.27474332 -8.5469407 128.63798363 -9 127 C-9.33 131.29 -9.66 135.58 -10 140 C-29.8 140 -49.6 140 -70 140 C-70 126.8 -70 113.6 -70 100 C-50.2 100 -30.4 100 -10 100 C-9.34 96.04 -8.68 92.08 -8 88 C-7.0515379 85.03637041 -6.09898434 82.24055991 -4.9375 79.375 C-4.5343457 78.33666016 -4.5343457 78.33666016 -4.12304688 77.27734375 C-3.15830948 74.80896328 -2.18577881 72.37155762 -1 70 C-0.84876169 68.4804236 -0.75118307 66.95527498 -0.68359375 65.4296875 C-0.62075195 64.08583984 -0.62075195 64.08583984 -0.55664062 62.71484375 C-0.51732422 61.77769531 -0.47800781 60.84054688 -0.4375 59.875 C-0.37272461 58.45767578 -0.37272461 58.45767578 -0.30664062 57.01171875 C-0.2004106 54.67465828 -0.09968729 52.3373487 0 50 C4.62 50 9.24 50 14 50 C14.66 48.68 15.32 47.36 16 46 C17.98 44.35 19.96 42.7 22 41 C11.11 40.505 11.11 40.505 0 40 C0 26.8 0 13.6 0 0 Z " fill="#FAFDFD" transform="translate(170,140)"/>
<path d="M0 0 C105.6 0 211.2 0 320 0 C320 14.19 320 28.38 320 43 C318.38511278 40.57766917 317.11980743 38.27088226 315.8125 35.6875 C311.25330089 27.52335275 304.86354687 23.62708885 296 21 C292.15282592 20.4757467 288.37238858 20.45836652 284.49388123 20.49206543 C283.37687728 20.48582547 282.25987332 20.4795855 281.10902077 20.47315645 C277.38813585 20.45727673 273.66791058 20.46981167 269.94702148 20.48242188 C267.27050888 20.47699856 264.59404083 20.47001878 261.9175415 20.46118164 C255.41602262 20.44344365 248.91468899 20.44721504 242.413163 20.4588322 C237.12742207 20.46788415 231.84173287 20.46908294 226.5559864 20.46473694 C225.80226619 20.46412401 225.04854598 20.46351107 224.27198576 20.46287957 C222.74059167 20.46160061 221.20919759 20.46030375 219.67780352 20.4589892 C205.33584357 20.44759744 190.99398608 20.46067542 176.65204293 20.48219067 C164.35725145 20.50006404 152.06261103 20.49695289 139.76782227 20.47851562 C125.47388619 20.45709033 111.18003976 20.44869212 96.88608986 20.46096468 C95.36079253 20.46223882 93.83549519 20.4634963 92.31019783 20.46473694 C91.55981201 20.46535404 90.8094262 20.46597114 90.03630142 20.46660694 C84.75898058 20.4700546 79.48171682 20.46424421 74.20440483 20.45481873 C67.77020658 20.44357905 61.33620343 20.4466801 54.90202742 20.4679417 C51.6218088 20.47842537 48.34198067 20.48045247 45.06175423 20.46934509 C41.50055822 20.45839883 37.94027325 20.47214388 34.37913513 20.49206543 C33.34994302 20.48314254 32.3207509 20.47421966 31.26037115 20.46502638 C21.91606903 20.56627116 14.69346817 23.53428316 7.796875 29.8515625 C4.54717865 33.73706901 2.76956904 38.29532848 1 43 C0.67 43 0.34 43 0 43 C0 28.81 0 14.62 0 0 Z " fill="#FCFDFD" transform="translate(0,0)"/>
<path d="M0 0 C23.1 0 46.2 0 70 0 C70 16.5 70 33 70 50 C46.9 50 23.8 50 0 50 C0 33.5 0 17 0 0 Z " fill="#FBFDFD" transform="translate(20,80)"/>
<path d="M0 0 C0 9.57 0 19.14 0 29 C23.1 29 46.2 29 70 29 C70 35.6 70 42.2 70 49 C46.9 49 23.8 49 0 49 C0 58.57 0 68.14 0 78 C-4 76 -4 76 -5 73 C-6.31226486 72.29276371 -7.64867508 71.62939907 -9 71 C-10.56811523 69.65893555 -10.56811523 69.65893555 -12.05859375 68.13671875 C-12.60966797 67.57919922 -13.16074219 67.02167969 -13.72851562 66.44726562 C-14.57446289 65.57618164 -14.57446289 65.57618164 -15.4375 64.6875 C-15.99759766 64.11837891 -16.55769531 63.54925781 -17.13476562 62.96289062 C-18.23933009 61.84028194 -19.34167664 60.71548611 -20.44165039 59.58837891 C-21.87217823 58.13028488 -23.32192317 56.69110987 -24.7734375 55.25390625 C-27 53 -27 53 -29.1875 50.25 C-30.80309077 47.92512612 -30.80309077 47.92512612 -33 47 C-33 46.34 -33 45.68 -33 45 C-33.99 44.67 -34.98 44.34 -36 44 C-37.8125 42.25 -37.8125 42.25 -39 40 C-37.89632542 36.27703573 -36.31664536 33.94152526 -33.59179688 31.21948242 C-32.55061707 30.16895943 -32.55061707 30.16895943 -31.48840332 29.09721375 C-30.36492493 27.98754997 -30.36492493 27.98754997 -29.21875 26.85546875 C-28.44946167 26.08568192 -27.68017334 25.31589508 -26.88757324 24.52278137 C-25.26376601 22.90131074 -23.63627411 21.28352283 -22.00537109 19.66918945 C-19.50049039 17.18798576 -17.00927916 14.69364435 -14.51953125 12.19726562 C-12.94089632 10.62420464 -11.36149545 9.05191185 -9.78125 7.48046875 C-9.0322644 6.73057175 -8.28327881 5.98067474 -7.51159668 5.20805359 C-6.81747681 4.52346573 -6.12335693 3.83887787 -5.40820312 3.13354492 C-4.79690552 2.52685471 -4.18560791 1.92016449 -3.55578613 1.29508972 C-2 0 -2 0 0 0 Z " fill="#F8FCFC" transform="translate(230,211)"/>
<path d="M0 0 C19.8 0 39.6 0 60 0 C60 16.5 60 33 60 50 C40.2 50 20.4 50 0 50 C0 33.5 0 17 0 0 Z " fill="#FBFDFD" transform="translate(240,80)"/>
<path d="M0 0 C19.8 0 39.6 0 60 0 C60 16.5 60 33 60 50 C40.2 50 20.4 50 0 50 C0 33.5 0 17 0 0 Z " fill="#FBFDFD" transform="translate(170,80)"/>
<path d="M0 0 C19.8 0 39.6 0 60 0 C60 16.5 60 33 60 50 C40.2 50 20.4 50 0 50 C0 33.5 0 17 0 0 Z " fill="#FBFDFE" transform="translate(100,80)"/>
<path d="M0 0 C23.1 0 46.2 0 70 0 C70 13.2 70 26.4 70 40 C46.9 40 23.8 40 0 40 C0 26.8 0 13.6 0 0 Z " fill="#FBFDFD" transform="translate(20,240)"/>
<path d="M0 0 C23.1 0 46.2 0 70 0 C70 13.2 70 26.4 70 40 C46.9 40 23.8 40 0 40 C0 26.8 0 13.6 0 0 Z " fill="#FBFDFD" transform="translate(20,190)"/>
<path d="M0 0 C23.1 0 46.2 0 70 0 C70 13.2 70 26.4 70 40 C46.9 40 23.8 40 0 40 C0 26.8 0 13.6 0 0 Z " fill="#FBFDFD" transform="translate(20,140)"/>
<path d="M0 0 C19.8 0 39.6 0 60 0 C60 13.2 60 26.4 60 40 C40.2 40 20.4 40 0 40 C0 26.8 0 13.6 0 0 Z " fill="#FAFCFD" transform="translate(100,190)"/>
<path d="M0 0 C19.8 0 39.6 0 60 0 C60 13.2 60 26.4 60 40 C40.2 40 20.4 40 0 40 C0 26.8 0 13.6 0 0 Z " fill="#FAFCFD" transform="translate(100,140)"/>
<path d="M0 0 C0.33 0 0.66 0 1 0 C1 20.46 1 40.92 1 62 C-19.46 62 -39.92 62 -61 62 C-61 61.67 -61 61.34 -61 61 C-60.030625 60.8040625 -59.06125 60.608125 -58.0625 60.40625 C-37.9973928 56.05712538 -22.3904754 46.92657258 -10.67578125 29.73046875 C-4.93158485 20.37104385 -2.38096978 10.60130118 0 0 Z " fill="#F8FCFC" transform="translate(319,258)"/>
<path d="M0 0 C19.8 0 39.6 0 60 0 C60 11.88 60 23.76 60 36 C60.99 36.33 61.98 36.66 63 37 C62.67 37.99 62.34 38.98 62 40 C60.51831055 39.01049805 60.51831055 39.01049805 59 37 C58.73859657 34.2021401 58.65075362 31.62597173 58.70703125 28.83203125 C58.71005249 28.12735718 58.71307373 27.42268311 58.71618652 26.69665527 C58.73186336 24.06845418 58.77374759 21.44046214 58.8125 18.8125 C58.874375 12.934375 58.93625 7.05625 59 1 C39.86 1 20.72 1 1 1 C1 7.6 1 14.2 1 21 C0.67 21 0.34 21 0 21 C0 14.07 0 7.14 0 0 Z " fill="#E2F7FE" transform="translate(240,140)"/>
<path d="M0 0 C0.33 0 0.66 0 1 0 C1.33 11.22 1.66 22.44 2 34 C2.66 34 3.32 34 4 34 C3.34 37.3 2.68 40.6 2 44 C1.67 43.01 1.34 42.02 1 41 C-19.13 41 -39.26 41 -60 41 C-60 40.67 -60 40.34 -60 40 C-40.2 40 -20.4 40 0 40 C0 26.8 0 13.6 0 0 Z " fill="#508FAC" transform="translate(160,190)"/>
<path d="M0 0 C0.495 1.485 0.495 1.485 1 3 C-0.7578125 3.94401042 -2.515625 4.88802083 -4.2734375 5.83203125 C-6.30502365 7.04763493 -6.30502365 7.04763493 -8 10 C-9.9453125 10.29296875 -9.9453125 10.29296875 -12.125 10.1875 C-13.40375 10.125625 -14.6825 10.06375 -16 10 C-16.66 11.32 -17.32 12.64 -18 14 C-22.95 14 -27.9 14 -33 14 C-33 13.67 -33 13.34 -33 13 C-31.5459375 12.70609375 -31.5459375 12.70609375 -30.0625 12.40625 C-20.40770044 10.30431841 -7.23425697 7.23425697 0 0 Z " fill="#CDF6F1" transform="translate(291,306)"/>
<path d="M0 0 C0.33 1.32 0.66 2.64 1 4 C-0.1196986 5.00593243 -1.2459412 6.0045849 -2.375 7 C-3.31472656 7.8353125 -3.31472656 7.8353125 -4.2734375 8.6875 C-6 10 -6 10 -8 10 C-8.061875 10.5775 -8.12375 11.155 -8.1875 11.75 C-9.34689075 14.96062054 -11.17315616 16.18274325 -14 18 C-14.99 17.67 -15.98 17.34 -17 17 C-11.39 11.39 -5.78 5.78 0 0 Z " fill="#C4F0E9" transform="translate(225,214)"/>
<path d="M0 0 C0.93423645 3.01031744 1.04449911 3.86650268 0 7 C-0.639375 7.28875 -1.27875 7.5775 -1.9375 7.875 C-4.71680854 9.39098648 -5.07115981 11.05867273 -6 14 C-6.66 14 -7.32 14 -8 14 C-8 16.31 -8 18.62 -8 21 C-8.66 21.33 -9.32 21.66 -10 22 C-9.80318507 13.26857412 -7.59876448 7.89055619 -1.6875 1.5 C-1.130625 1.005 -0.57375 0.51 0 0 Z " fill="#478BA8" transform="translate(11,26)"/>
<path d="M0 0 C0.33 0 0.66 0 1 0 C1 9.57 1 19.14 1 29 C-3 27 -3 27 -4 24 C-4.99 23.67 -5.98 23.34 -7 23 C-4.92446352 22.4465236 -3.15634036 22 -1 22 C-0.67 14.74 -0.34 7.48 0 0 Z " fill="#CFFCF8" transform="translate(229,260)"/>
<path d="M0 0 C0.99 0 1.98 0 3 0 C2.83886719 0.81210938 2.67773438 1.62421875 2.51171875 2.4609375 C1.92050114 6.54981652 1.80900355 10.50005935 1.8125 14.625 C1.8115332 15.80618408 1.8115332 15.80618408 1.81054688 17.01123047 C1.86856241 23.47864371 2.61116476 29.67583955 4 36 C1.43260906 33.76748614 0.58871921 32.33173548 0 29 C-0.08173345 26.75646063 -0.10750277 24.51063108 -0.09765625 22.265625 C-0.09443359 20.97011719 -0.09121094 19.67460937 -0.08789062 18.33984375 C-0.07953598 16.97656183 -0.07107104 15.61328058 -0.0625 14.25 C-0.05748168 12.87109535 -0.05291935 11.49218896 -0.04882812 10.11328125 C-0.03704093 6.74214341 -0.02058635 3.37109372 0 0 Z " fill="#CFF9F3" transform="translate(179,234)"/>
<path d="M0 0 C0.33 0 0.66 0 1 0 C1.06058594 1.14339844 1.12117187 2.28679687 1.18359375 3.46484375 C1.26798428 4.95574305 1.35263302 6.44662775 1.4375 7.9375 C1.47681641 8.69224609 1.51613281 9.44699219 1.55664062 10.22460938 C1.44038024 13.91944187 1.44038024 13.91944187 3 17 C3.21187671 18.53610616 3.36929405 20.07986899 3.5 21.625 C3.87593685 25.77820711 4.37272552 29.87791055 5 34 C-1.50862661 24.23706008 -0.33989345 11.216484 0 0 Z " fill="#2DA78A" transform="translate(180,240)"/>
<path d="M0 0 C0.33 0 0.66 0 1 0 C1.50588147 1.91512272 2.00448391 3.83216922 2.5 5.75 C2.7784375 6.81734375 3.056875 7.8846875 3.34375 8.984375 C4 12 4 12 4 16 C3.01 16 2.02 16 1 16 C0.67 16.66 0.34 17.32 0 18 C0 12.06 0 6.12 0 0 Z " fill="#5B8FAC" transform="translate(160,262)"/>
<path d="M0 0 C1.875 0.3125 1.875 0.3125 4 1 C4.66 1.99 5.32 2.98 6 4 C6.99 4 7.98 4 9 4 C9 7.63 9 11.26 9 15 C6.87181172 11.80771757 5.05756608 8.51993796 3.21875 5.15625 C2.22177209 3.392366 1.12390141 1.68585212 0 0 Z " fill="#E4F6FA" transform="translate(311,28)"/>
<path d="M0 0 C8.91765652 0.23080993 16.70624517 3.00318992 25 6 C24.34 6.66 23.68 7.32 23 8 C20.875 7.625 20.875 7.625 19 7 C19 6.34 19 5.68 19 5 C13.61972975 3.80911014 8.54708616 2.7080481 3 3 C3 2.34 3 1.68 3 1 C2.01 0.67 1.02 0.34 0 0 Z " fill="#199E80" transform="translate(254,180)"/>
<path d="M0 0 C0 3 0 3 -2 6 C-2.66 6 -3.32 6 -4 6 C-4 6.66 -4 7.32 -4 8 C-5.6222454 9.70993434 -7.29413425 11.37347684 -9 13 C-9.598125 13.598125 -10.19625 14.19625 -10.8125 14.8125 C-11.204375 15.204375 -11.59625 15.59625 -12 16 C-12.66 15.67 -13.32 15.34 -14 15 C-4.58997722 4.44191344 -4.58997722 4.44191344 0 0 Z " fill="#1CA282" transform="translate(206,195)"/>
<path d="M0 0 C0.495 0.639375 0.99 1.27875 1.5 1.9375 C4.87457208 6.0713508 8.43596883 10.02939246 12 14 C10.68 14.33 9.36 14.66 8 15 C7.5978125 14.1028125 7.5978125 14.1028125 7.1875 13.1875 C6.12703272 10.9700287 6.12703272 10.9700287 4.4375 9.5 C3 8 3 8 2.5 5.875 C2.335 5.25625 2.17 4.6375 2 4 C1.01 3.67 0.02 3.34 -1 3 C-0.67 2.01 -0.34 1.02 0 0 Z " fill="#D1F8F2" transform="translate(189,285)"/>
<path d="M0 0 C0.44730469 0.39832031 0.89460937 0.79664063 1.35546875 1.20703125 C4.12114381 3.63068253 6.66144023 5.80864013 9.875 7.625 C12 9 12 9 12.8125 11.1875 C12.874375 11.785625 12.93625 12.38375 13 13 C8.04786397 9.98040486 3.72826709 6.47833266 0 2 C0 1.34 0 0.68 0 0 Z " fill="#219F81" transform="translate(198,295)"/>
<path d="M0 0 C4.70102928 2.35051464 8.06536554 5.68162968 11 10 C11.671875 12.22265625 11.671875 12.22265625 12 14 C10.18700962 12.27765914 8.65467512 10.55107765 7.125 8.5625 C5.06036517 5.89458183 5.06036517 5.89458183 2.25 3.8125 C1.5075 3.214375 0.765 2.61625 0 2 C0 1.34 0 0.68 0 0 Z " fill="#508DA6" transform="translate(305,24)"/>
<path d="M0 0 C7.59 0 15.18 0 23 0 C22.01 1.485 22.01 1.485 21 3 C20.34 3 19.68 3 19 3 C19 2.34 19 1.68 19 1 C12.73 1 6.46 1 0 1 C0 0.67 0 0.34 0 0 Z " fill="#558FA8" transform="translate(170,180)"/>
<path d="M0 0 C3.13269705 3.13269705 3.05494397 5.97328423 3.0625 10.25 C3.041875 11.4875 3.02125 12.725 3 14 C0.54023511 10.31035266 -0.12465307 8.72571521 -0.0625 4.375 C-0.05347656 3.55773437 -0.04445313 2.74046875 -0.03515625 1.8984375 C-0.02355469 1.27195313 -0.01195312 0.64546875 0 0 Z " fill="#21A787" transform="translate(317,234)"/>
<path d="M0 0 C0.33 1.32 0.66 2.64 1 4 C0.01 4.33 -0.98 4.66 -2 5 C-2.33 5.99 -2.66 6.98 -3 8 C-4.32 7.67 -5.64 7.34 -7 7 C-4.69 4.69 -2.38 2.38 0 0 Z " fill="#C3EEE7" transform="translate(207,232)"/>
<path d="M0 0 C4.95769796 -0.29162929 8.02806853 -0.12940055 12 3 C12 3.66 12 4.32 12 5 C10.56068883 4.54738642 9.12361001 4.08767021 7.6875 3.625 C6.88699219 3.36976563 6.08648437 3.11453125 5.26171875 2.8515625 C3 2 3 2 0 0 Z " fill="#C8F3EE" transform="translate(271,183)"/>
<path d="M0 0 C0.99 0 1.98 0 3 0 C2.34 4.62 1.68 9.24 1 14 C0.67 14 0.34 14 0 14 C0 9.38 0 4.76 0 0 Z " fill="#DBFBF8" transform="translate(179,234)"/>
<path d="M0 0 C1.98 0 3.96 0 6 0 C6.33 1.65 6.66 3.3 7 5 C5.68 4.67 4.36 4.34 3 4 C3 3.34 3 2.68 3 2 C2.01 1.67 1.02 1.34 0 1 C0 0.67 0 0.34 0 0 Z " fill="#D8F5F3" transform="translate(222,282)"/>
<path d="M0 0 C0.33 1.32 0.66 2.64 1 4 C0.195625 4.28875 -0.60875 4.5775 -1.4375 4.875 C-4.1326468 5.73262568 -4.1326468 5.73262568 -5 8 C-5.66 7.34 -6.32 6.68 -7 6 C-4.69 4.02 -2.38 2.04 0 0 Z " fill="#C9F4F0" transform="translate(299,299)"/>
<path d="M0 0 C1.58409994 0.11487748 3.16728963 0.24234508 4.75 0.375 C6.07257813 0.47941406 6.07257813 0.47941406 7.421875 0.5859375 C10 1 10 1 14 3 C10.37 3 6.74 3 3 3 C3 2.34 3 1.68 3 1 C2.01 0.67 1.02 0.34 0 0 Z " fill="#2DA68B" transform="translate(254,180)"/>
<path d="M0 0 C0.33 0 0.66 0 1 0 C1 2.31 1 4.62 1 7 C-0.32 7.33 -1.64 7.66 -3 8 C-1.125 2.25 -1.125 2.25 0 0 Z " fill="#D0F6F2" transform="translate(314,277)"/>
<path d="M0 0 C-0.99 1.485 -0.99 1.485 -2 3 C-3.32 2.67 -4.64 2.34 -6 2 C-6 1.34 -6 0.68 -6 0 C-3.50907189 -1.24546405 -2.58919267 -0.7767578 0 0 Z " fill="#DBFAF7" transform="translate(285,313)"/>
<path d="M0 0 C0.66 0.66 1.32 1.32 2 2 C-0.97 4.475 -0.97 4.475 -4 7 C-3.67 5.02 -3.34 3.04 -3 1 C-2.01 0.67 -1.02 0.34 0 0 Z " fill="#109F80" transform="translate(299,296)"/>
</svg>
