<svg id="svg" fill="#000000" stroke="#000000" width="200px" height="200px" version="1.1" viewBox="144 144 512 512" xmlns="http://www.w3.org/2000/svg">
    <g id="IconSvg_bgCarrier" stroke-width="0"></g>
    <g id="IconSvg_tracerCarrier" stroke-linecap="round" stroke-linejoin="round" stroke="#CCCCCC"></g>
     <g id="IconSvg_iconCarrier">
      <g xmlns="http://www.w3.org/2000/svg">
  <path d="m285.93 283.42c-2.7109-21.402 3.918-42.957 18.18-59.145 14.262-16.184 34.812-25.465 56.383-25.465 20.191 0 39.133 7.8867 53.336 22.207 16.418 16.551 24.152 39.297 21.219 62.402l-5.1562 40.668c-2.5039 19.773-13.371 37.594-29.809 48.887-11.695 8.0352-25.387 12.281-39.59 12.281-14.211 0-27.898-4.2461-39.598-12.281-16.438-11.293-27.305-29.113-29.809-48.887z"></path>
  <path d="m499.04 412.54c-10.012 0-19.664 1.5703-28.727 4.4727-0.46094-0.15625-0.92578-0.30078-1.3906-0.44141l-63.094-19.129c-2.8398-0.85938-5.918 0.058594-7.8125 2.3438l-37.531 45.078-37.523-45.078c-1.8984-2.2812-4.9727-3.2031-7.8125-2.3438l-63.098 19.129c-13.234 4.0195-24.59 12.016-32.828 23.129-8.2344 11.113-12.59 24.301-12.59 38.137v99.816c0 4.0742 3.3008 7.3789 7.3789 7.3789h232.28c15.066 10.199 33.227 16.164 52.746 16.164 52.008 0 94.32-42.316 94.32-94.328s-42.309-94.328-94.32-94.328zm0 168.97c-16.645 0-32.035-5.4766-44.461-14.719-18.309-13.617-30.184-35.41-30.184-59.926 0-32.359 20.699-59.977 49.551-70.309 7.8477-2.8086 16.297-4.3398 25.098-4.3398 41.156 0 74.641 33.484 74.641 74.645-0.003906 41.164-33.488 74.648-74.645 74.648z"></path>
  <path d="m545.12 497.02v19.684h-36.238v36.234h-19.68v-36.234h-36.234v-19.684h36.234v-36.234h19.68v36.234z"></path>
 </g>

      </g>
      </svg>